<?xml version="1.0" encoding="UTF-8"?>
<svg xmlns="http://www.w3.org/2000/svg" id="Layer_1" viewBox="0 0 700 734.98">
  <defs>
    <style>.cls-1{fill:#562683;stroke-width:0px;}</style>
  </defs>
  <g id="PjcJlI">
    <path class="cls-1" d="M349.21,731c-82.42.02-164.84.13-247.26-.03-54.78-.1-93.66-38.74-93.74-93.65-.21-151.23-.23-302.46,0-453.68.08-54.79,39.1-93.35,93.77-93.77,8.7-.07,17.4-.28,26.08.03,7.27.26,10.37-2.75,10.11-10.02-.36-10.26.7-20.41,4.28-30.13,10.66-28.9,39.89-45.9,70.5-41.08,28.51,4.49,51.62,30.86,52.48,61.35.61,21.5-1.35,19.79,20.77,19.82,43.86.05,87.71.03,131.57,0,15,0,15-.05,15.25-14.95.67-40.05,27.7-67.4,65.96-66.74,32.58.57,59.31,27.09,61.45,61.04.21,3.39.37,6.82.11,10.2-.59,7.89,3.02,10.6,10.73,10.58,13.97-.05,28.02-1.32,41.9,1.01,50.13,8.4,82.35,52.02,78.44,105.7-.63,8.66-1.04,17.36-1.05,26.04-.06,128.53-.01,257.07-.08,385.6,0,13.19,1.39,26.28.09,39.59-4.53,46.25-42.95,82.79-89.59,82.99-83.93.35-167.86.1-251.79.12ZM349.33,294.95c-95.29,0-190.59,0-285.88,0-15.59,0-15.64.05-15.65,15.79-.02,107.39-.05,214.79.01,322.18.02,38.58,19.94,58.56,58.85,58.58,162.6.09,325.21.05,487.81-.06,35.99-.02,56.45-20.53,56.47-56.3.06-108.15.02-216.3-.01-324.45,0-15.69-.07-15.73-15.73-15.74-95.29-.02-190.59,0-285.88,0ZM349.35,255.34c96.03,0,192.05-.13,288.07.19,10.32.04,14.07-2.96,13.72-13.49-.68-20.39.11-40.83-.32-61.24-.62-29.09-22.01-50.32-51.25-51.29-8.69-.29-17.43.42-26.07-.24-9.96-.76-13.42,3.1-13.05,13.01.65,17.58-4.27,33.71-16.1,47.13-17.6,19.98-45,26.6-70.32,17.29-24.79-9.11-40.27-32.14-40.99-60.97q-.41-16.29-16.22-16.32c-43.1-.02-86.2,0-129.29-.01q-20.61,0-21.97,20.9c-2.12,32.69-27.99,59.03-59.6,60.67-33.25,1.72-61.15-20.86-66.44-54.05-1.01-6.31-1.17-12.78-1.38-19.18-.19-5.61-2.71-8.28-8.37-8.24-10.21.06-20.42-.36-30.62,0-29.67,1.04-50.92,22.77-51.28,52.44-.23,19.28-.07,38.56-.05,57.84.02,15.51.04,15.56,15.75,15.56,95.27.01,190.54,0,285.81.01ZM472.74,108.79s.04,0,.06,0c0,12.48-.6,24.99.15,37.42.94,15.47,10.9,25.21,24.09,25.01,13.22-.2,22.95-9.05,23.46-24.19.85-24.92.9-49.92-.01-74.84-.57-15.62-10.94-24.78-24.41-24.36-13.43.42-22.64,10.28-23.24,25.78-.46,11.7-.09,23.44-.09,35.16ZM226.11,108.07c-1.06-12.73,2.05-27.97-1.77-42.85-2.85-11.13-11.19-17.36-22.23-17.37-10.79-.02-19.62,6.52-22.52,17.17-1.08,3.96-2.03,8.25-1.67,12.26,1.99,22.64.58,45.32,1.12,67.97.39,16.15,8.75,25.63,22.48,25.96,13.87.34,23.84-9.76,24.5-25.7.48-11.69.1-23.42.1-37.45Z"></path>
    <path class="cls-1" d="M412.84,642.33c-18.96.09-33.92-14.51-34.22-33.39-.29-18.22,15.28-33.49,34.11-33.46,19.02.03,33.64,14.76,33.68,33.92.03,17.83-15.28,32.85-33.57,32.93Z"></path>
    <path class="cls-1" d="M412.44,526.64c-18.43-.08-33.69-14.78-33.82-32.6-.15-19.32,15.1-34.47,34.49-34.27,18.63.19,32.99,14.54,33.19,33.15.2,18.61-15.05,33.8-33.86,33.72Z"></path>
    <path class="cls-1" d="M286.08,344.07c18.86-.07,33.77,14.62,34.05,33.54.26,18.16-15.33,33.35-34.19,33.32-18.68-.03-33.03-14.16-33.34-32.83-.31-18.72,14.69-33.97,33.47-34.04Z"></path>
    <path class="cls-1" d="M412.58,410.92c-18.99-.06-34.04-14.96-33.95-33.63.09-18.57,15.33-33.31,34.35-33.22,18.76.09,33.63,15.44,33.18,34.23-.45,18.73-14.81,32.68-33.59,32.62Z"></path>
    <path class="cls-1" d="M286.47,575.48c18.75.09,33.85,15.27,33.7,33.87-.15,18.47-15.65,33.27-34.55,33.01-18.24-.25-32.99-15.11-33.1-33.35-.12-18.64,15.06-33.63,33.96-33.54Z"></path>
    <path class="cls-1" d="M286.03,526.65c-18.4-.09-33.9-15.91-33.46-34.15.44-18.27,15.33-32.78,33.61-32.75,18.97.03,34.04,14.88,33.99,33.51-.05,18.56-15.3,33.47-34.14,33.38Z"></path>
    <path class="cls-1" d="M193.47,493.02c.12,18.77-13.85,33.34-32.24,33.63-18.99.3-34.37-14.23-34.67-32.77-.31-18.75,14.59-34.04,33.24-34.12,19.63-.09,33.55,13.67,33.67,33.27Z"></path>
    <path class="cls-1" d="M538.46,410.96c-18.99.04-33.29-14.54-33.18-33.85.1-18.56,14.29-32.76,32.99-33.02,18.78-.26,33.94,14.64,33.94,33.36,0,19.07-14.5,33.47-33.74,33.52Z"></path>
    <path class="cls-1" d="M539.12,526.63c-19.27.16-33.7-14.02-33.83-33.25-.13-19.29,14.09-33.59,33.44-33.62,18.61-.03,33.15,14.15,33.48,32.64.34,18.88-14.35,34.07-33.09,34.23Z"></path>
    <path class="cls-1" d="M193.48,608.75c.15,19.4-13.91,33.58-33.34,33.61-18.63.03-33.69-15.14-33.59-33.82.1-18.11,14.78-32.73,33.17-33.04,18.98-.32,33.61,14.09,33.76,33.26Z"></path>
  </g>
</svg>
