<?xml version="1.0" encoding="UTF-8"?>
<svg xmlns="http://www.w3.org/2000/svg" id="Layer_1" viewBox="0 0 700 691.55">
  <defs>
    <style>.cls-1{fill:#562683;}.cls-1,.cls-2{stroke-width:0px;}.cls-3{fill:#fff;font-family:Poppins-SemiBold, Poppins;font-size:64.62px;font-weight:600;}.cls-2{fill:#ffbc43;}</style>
  </defs>
  <rect class="cls-1" x="10.01" y="7.85" width="679.98" height="679.98" rx="98.26" ry="98.26"></rect>
  <text class="cls-3" transform="translate(107.26 497.18)">
    <tspan x="0" y="0">Comunicación</tspan>
    <tspan x="8.63" y="77.54">con Miembros</tspan>
  </text>
  <g id="LgzyQB">
    <path class="cls-2" d="M297.69,114.59c24.73,0,49.46,0,74.19,0,6.94,0,13.42,1.65,18.98,5.97,7.73,5.99,11.92,13.88,11.94,23.73.05,31.83.06,63.65,0,95.48-.02,16.77-13.18,29.8-29.9,29.8-33.52,0-67.03.01-100.55-.03-1.94,0-3.47.5-4.95,1.75-13.2,11.07-26.44,22.08-39.66,33.13-2.5,2.09-5.26,2.75-8.31,1.61-3.06-1.14-4.73-3.49-5.12-6.72-.11-.94-.14-1.89-.14-2.83-.02-8.58-.05-17.16,0-25.74.01-1.59-.49-2.4-2.01-3-12.49-4.9-19.54-15.25-19.55-28.68-.02-31.56-.03-63.11,0-94.67.01-15.52,11.75-28.31,27.24-29.52,9.37-.74,18.77-.22,28.16-.27,16.55-.08,33.11-.02,49.67-.02v.02ZM297.85,130.77c-25.07,0-50.14-.02-75.21,0-8.3,0-14.05,5.74-14.05,14.02-.02,31.49,0,62.98-.02,94.47,0,1.57.21,3.1.65,4.6,1.66,5.69,6.62,9.44,12.82,9.73,4.48.21,7.92,3.2,8.02,7.27.14,6.21.08,12.41.11,18.62,0,.53-.28,1.25.17,1.54.66.42,1.06-.36,1.49-.72,9.56-7.94,19.15-15.85,28.63-23.89,2.37-2.02,4.88-2.85,7.94-2.85,34.6.05,69.19.03,103.79.03,9.05,0,14.63-5.62,14.64-14.7,0-31.15-.14-62.3.1-93.45.06-8.17-6.17-14.85-14.67-14.76-24.8.26-49.6.09-74.4.09Z"></path>
    <path class="cls-2" d="M469.89,377.31c0-6.73-.01-13,0-19.27.01-5.31,3.03-8.47,8.3-8.72,7.51-.36,13.12-6.13,13.21-13.73.08-6.08.02-12.16.02-18.25,0-25.54,0-51.09,0-76.63,0-6.91-4.18-12.41-10.48-13.9-1.47-.35-2.95-.31-4.44-.31-15.48,0-30.95,0-46.43,0-.68,0-1.35.01-2.03,0-5.39-.14-8.5-3.2-8.42-8.28.08-4.81,3.45-7.87,8.67-7.85,16.47.06,32.95.11,49.42.19,14.35.07,26.17,9.74,29.05,23.78.44,2.12.62,4.27.62,6.44-.01,31.42,0,62.85-.01,94.27,0,13.03-7.27,23.75-19.38,28.4-1.72.66-2.18,1.57-2.17,3.28.06,8.78,0,17.57,0,26.35,0,3.91-1.29,7.05-5.09,8.66-3.03,1.29-5.82.65-8.31-1.43-12.15-10.12-24.41-20.1-36.37-30.43-3.8-3.28-7.55-4.73-12.65-4.69-31.96.23-63.93.12-95.89.12-17.47,0-30.33-12.88-30.34-30.36,0-13.25-.02-26.49.01-39.74.01-6.05,4.77-9.6,10.53-7.94,3.44.99,5.43,3.79,5.44,7.86.02,12.77,0,25.54.02,38.32,0,1.55-.06,3.13.21,4.65,1.24,6.83,6.65,11.23,13.82,11.24,25.61.02,51.22,0,76.84.01,9.33,0,18.65.03,27.98-.02,2.85-.02,5.18.89,7.38,2.75,9.7,8.2,19.49,16.29,29.25,24.42.25.21.53.36,1.24.83Z"></path>
    <path class="cls-2" d="M297.67,163.56c16.14,0,32.29-.03,48.43.01,5.98.02,9.6,5.31,7.58,10.93-1.15,3.2-3.8,5-7.56,5.02-8.31.03-16.62.01-24.93.01-23.85,0-47.69,0-71.54,0-6.05,0-9.65-4.74-8.03-10.48.98-3.46,3.68-5.46,7.6-5.48,9.59-.04,19.18-.02,28.78-.02,6.55,0,13.11,0,19.66,0h0Z"></path>
    <path class="cls-2" d="M297.72,218.91c-16.14,0-32.29.03-48.43-.02-6.28-.02-9.93-6.1-7.11-11.71,1.58-3.15,4.32-4.25,7.69-4.25,14.72.01,29.45,0,44.17,0,17.22,0,34.45-.02,51.67.02,6.32.01,10.13,5.28,8,10.96-1.22,3.24-3.8,4.99-7.55,4.99-14.93.02-29.86,0-44.78,0-1.22,0-2.43,0-3.65,0Z"></path>
  </g>
</svg>
