<?xml version="1.0" encoding="UTF-8"?>
<svg xmlns="http://www.w3.org/2000/svg" id="Layer_1" viewBox="0 0 700 694.05">
  <defs>
    <style>.cls-1{fill:#562683;}.cls-1,.cls-2{stroke-width:0px;}.cls-3{fill:#fff;font-family:Poppins-SemiBold, Poppins;font-size:64.62px;font-weight:600;}.cls-2{fill:#ffbc43;}</style>
  </defs>
  <rect class="cls-1" x="10.01" y="8.79" width="679.98" height="679.98" rx="98.26" ry="98.26"></rect>
  <text class="cls-3" transform="translate(228.45 498.13)">
    <tspan x="0" y="0">Ofertas</tspan>
    <tspan x="-129.46" y="77.54">Personalizadas</tspan>
  </text>
  <g id="qCDDUe">
    <path class="cls-2" d="M514.54,190.85c-2.24,4.54-5.99,6.13-10.89,5.96-5.1-.18-10.2,0-15.31-.05-6.06-.06-9.8-3.51-9.83-8.97-.03-5.45,3.68-9.02,9.72-9.13,5.58-.11,11.17-.04,16.75-.02,4.36.01,7.5,2.06,9.56,5.85v6.36Z"></path>
    <path class="cls-2" d="M416.25,86.2c4.57,2.4,6.04,6.35,5.89,11.29-.15,4.9.01,9.81-.05,14.72-.08,6.11-3.73,10.07-9.15,10.04-5.43-.03-8.93-3.98-8.97-10.16-.03-5,.13-10.01-.05-15.01-.18-4.9,1.42-8.65,5.96-10.88h6.36Z"></path>
    <path class="cls-2" d="M330.36,382.4c-52.87.41-99.54-36.72-110.04-89.47-12.21-61.35,29.15-121.05,90.77-131.24,6-.99,12.02-1.64,18.1-1.55,2.15.03,3.01-.7,3.38-2.84,1.93-11.19,4.01-22.35,6.07-33.51.3-1.6.59-3.25,1.24-4.73,2.52-5.77,9.72-7.12,14.46-2.65,4.41,4.17,8.62,8.55,12.91,12.84,6.06,6.06,12.16,12.09,18.16,18.21,1.37,1.39,2.41,1.65,4.2.6,29.36-17.2,61.58,1.62,68.36,29.13,2.91,11.8,1.01,22.96-5.02,33.4-1.27,2.19-1.02,3.44.72,5.15,9.82,9.66,19.48,19.48,29.28,29.16,3.02,2.98,4.96,6.19,3.6,10.54-1.36,4.36-4.89,5.87-9,6.61-11.27,2.01-22.52,4.12-33.81,6.07-2.31.4-3.14,1.25-3.16,3.72-.55,54.48-39.4,100.03-93.13,109.24-5.98,1.03-12.03,1.58-17.09,1.32ZM343.61,363.28c-8.15-8.15-15.92-15.89-23.64-23.69-1.13-1.14-2.21-.8-3.43-.49-8.13,2.06-15.3.2-21.26-5.66-9.41-9.25-18.68-18.64-28.01-27.97-2.21-2.21-3.95-4.72-4.99-7.69-3.34-9.49-.94-17.6,6-24.55,16.87-16.91,33.78-33.78,50.66-50.68,1.01-1.01,2.09-1.91,2.37-3.5,2.28-12.78,4.58-25.57,6.98-38.33.39-2.08-.29-2.6-2.18-2.42-4.5.42-9,.89-13.44,1.72-22.27,4.18-41.35,14.1-55.54,32.05-17.8,22.51-23.56,48.27-18.85,76.37,3.63,21.68,13.71,39.9,30.58,54.17,14.17,11.99,30.79,18.34,49,20.89,8.4,1.18,16.81,1.46,25.76-.22ZM354.36,141.25c-.64.85-.74.92-.75,1-4.69,25.64-9.36,51.29-14.08,76.93-.37,2,.15,3.37,1.61,4.82,11.91,11.79,23.77,23.64,35.55,35.56,1.55,1.56,3,2.02,5.09,1.63,25.07-4.63,50.15-9.2,75.23-13.79.63-.11,1.52.15,1.78-.64.26-.76-.54-1.15-.99-1.61-18.18-18.18-36.38-36.35-54.57-54.53-10.83-10.82-21.68-21.63-32.46-32.49-5.48-5.52-10.84-11.15-16.4-16.89ZM310.86,321.87c1.47,0,2.53-.82,3.5-1.79,15.73-15.72,31.44-31.46,47.2-47.15,1.26-1.25,1.19-2.08-.04-3.3-10.18-10.11-20.32-20.25-30.43-30.43-1.24-1.25-2.07-1.24-3.3,0-15.69,15.76-31.44,31.46-47.14,47.21-2.5,2.51-2.52,4.53-.07,7,8.88,8.95,17.82,17.85,26.74,26.77.98.98,2.06,1.74,3.54,1.7ZM422.43,277.24c.11-5.17.1-5.22-2.98-4.66-12.39,2.24-24.77,4.54-37.17,6.76-1.41.25-2.49.84-3.47,1.83-5.36,5.4-10.69,10.82-16.15,16.11-1.59,1.54-1.44,2.46.05,3.95,10.81,10.7,21.56,21.45,32.26,32.26,1.54,1.56,2.47,1.54,3.9-.09,14.41-16.32,22.16-35.37,23.57-56.16ZM382.72,346.91c-.28-.33-.61-.8-1.01-1.2-10.68-10.69-21.38-21.36-32.03-32.08-1.23-1.24-2.16-1.22-3.36,0-3.91,3.99-7.85,7.94-11.84,11.84-1.24,1.21-1.26,2.09,0,3.33,9.29,9.22,18.54,18.48,27.78,27.76,1.02,1.02,1.99,1.27,3.34.69,5.59-2.4,10.93-5.25,15.95-8.68.54-.37,1.21-.66,1.19-1.67ZM441.05,188.21c.41-17.45-16.71-34.25-37.91-26.85-1.95.68-2.67,1.46-.76,3.05.81.68,1.51,1.49,2.26,2.24,10.49,10.49,20.98,20.99,31.48,31.47,2.11,2.11,2.33,2.05,3.37-.68,1.18-3.1,1.73-6.31,1.57-9.22Z"></path>
    <path class="cls-2" d="M478.74,113.18c3.69.1,6.48,1.74,8.01,5.13,1.52,3.36,1.24,6.77-1.27,9.45-4.6,4.92-9.35,9.71-14.29,14.28-3.44,3.19-8.85,2.71-12.05-.59-3.24-3.33-3.55-8.61-.31-12.07,4.54-4.84,9.31-9.47,14.07-14.1,1.56-1.51,3.59-2.22,5.84-2.11Z"></path>
  </g>
</svg>
