<?xml version="1.0" encoding="UTF-8"?>
<svg xmlns="http://www.w3.org/2000/svg" id="Layer_1" viewBox="0 0 700 691.55">
  <defs>
    <style>.cls-1{fill:#562683;}.cls-1,.cls-2{stroke-width:0px;}.cls-3{fill:#fff;font-family:Poppins-SemiBold, Poppins;font-size:64.62px;font-weight:600;}.cls-2{fill:#ffbc43;}</style>
  </defs>
  <rect class="cls-1" x="10.01" y="7.85" width="679.98" height="679.98" rx="98.26" ry="98.26"></rect>
  <text class="cls-3" transform="translate(115.1 497.18)">
    <tspan x="0" y="0">Recompensas</tspan>
    <tspan x="60.78" y="77.54">Por Puntos</tspan>
  </text>
  <g id="HprSFx">
    <path class="cls-2" d="M490.2,253.28c.03,77.57-62.75,140.16-140.59,140.16-76.68,0-139.1-63.01-139.81-139.76-.67-72.95,57.52-140.6,140.41-141.18,77.35-.54,139.95,63.03,139.99,140.78ZM350.1,370.08c59.05.98,117.31-45.89,117.26-117.29-.04-68.46-54.75-117.17-117.63-117.13-60.84.05-116.59,47.52-116.96,116.49-.38,71.65,57.91,118.91,117.32,117.93Z"></path>
    <path class="cls-2" d="M291.9,319.05c1.63-6.38,3.94-15,6.02-23.68,1.77-7.37,6.5-15.16,4.52-21.99-1.99-6.88-10.7-10.21-16.34-15.23-5.85-5.19-12.04-10-18.04-15.03-4.06-3.41-6.31-7.56-4.5-13,1.76-5.31,5.6-7.73,11.12-8.07,13.16-.79,26.3-1.94,39.46-2.5,4.96-.21,7.78-2.01,9.54-6.64,4.52-11.91,9.42-23.68,14.05-35.56,2.2-5.63,5.52-10.03,12.04-9.91,6.17.11,9.38,4.34,11.49,9.73,4.64,11.87,9.65,23.6,14.06,35.55,1.86,5.05,4.86,6.62,10.02,6.82,13.16.52,26.3,1.63,39.45,2.52,5.48.37,9.31,3.06,10.92,8.38,1.56,5.17-.67,9.24-4.49,12.46-10.09,8.51-20.19,17-30.48,25.26-4.03,3.24-5.09,6.55-3.64,11.64,3.32,11.6,5.92,23.4,8.96,35.08,1.55,5.92,2.3,11.62-3.32,15.87-5.95,4.49-11.35,1.79-16.67-1.62-9.79-6.27-19.8-12.22-29.39-18.79-4.87-3.34-8.64-3.83-13.79-.28-10.68,7.35-21.76,14.12-32.88,20.8-8.91,5.35-18.06.43-18.12-11.83ZM377.52,296.5c-2-8.26-3.27-15.01-5.3-21.51-2.42-7.75-.16-13.37,6.13-18.12,5.28-3.99,10.21-8.43,16.51-13.68-8.58-.58-15.61-1.21-22.65-1.5-6.75-.27-11.38-3.09-13.81-9.61-2.61-7.01-5.55-13.9-8.86-22.12-3.21,7.98-6.06,14.51-8.45,21.21-2.61,7.33-7.66,10.58-15.27,10.53-6.59-.04-13.13.58-20.85,2.18,5.88,4.89,10.63,9.26,15.81,13.05,6.47,4.75,8.12,10.56,6.09,18.19-1.69,6.36-4,12.65-4.42,20.08,6.45-2.57,11.57-6.14,16.49-9.74,7.43-5.43,14.19-5.21,21.47.09,5,3.64,10.43,6.7,17.13,10.95Z"></path>
  </g>
</svg>
