<?xml version="1.0" encoding="UTF-8"?>
<svg xmlns="http://www.w3.org/2000/svg" id="Layer_1" viewBox="0 0 700 697.86">
  <defs>
    <style>.cls-1{fill:#ffbc43;}.cls-1,.cls-2{stroke-width:0px;}.cls-2{fill:#fff;}</style>
  </defs>
  <circle class="cls-1" cx="350" cy="349.7" r="341.85"></circle>
  <g id="zjhEaw">
    <path class="cls-2" d="M343.04,501.66c-56.1,0-112.21,0-168.31,0-13.85,0-19.83-5.96-19.83-19.75,0-60.69-.01-121.38.04-182.06,0-1.97-1.09-4.71,1-5.74,1.83-.9,3.35,1.47,4.84,2.6,56.73,42.63,113.43,85.29,170.13,127.94,9.45,7.11,15.3,7.1,24.79-.04,56.93-42.82,113.85-85.64,170.78-128.46.67-.5,1.32-1.02,2-1.5,1.94-1.36,3.09-1.03,3.15,1.51.03,1.11.03,2.22.03,3.33,0,60.83,0,121.65,0,182.48,0,13.73-6.02,19.69-19.89,19.69-56.24,0-112.49,0-168.73,0Z"></path>
    <path class="cls-2" d="M343.49,227.98c56.37,0,112.74.23,169.1-.17,13.48-.1,20.5,8.82,18.98,22.65-.26,2.39-2.08,3.48-3.73,4.73-36.94,27.79-73.89,55.58-110.82,83.38-23.18,17.44-46.41,34.83-69.48,52.43-3.24,2.47-5.3,2.44-8.54,0-59.27-44.76-118.64-89.37-177.95-134.08-2.44-1.84-5.91-2.99-6.09-6.87-.26-5.75-.19-11.42,3.75-16.22,3.64-4.45,8.37-5.89,14.01-5.88,48.45.09,96.91.05,145.36.05,8.47,0,16.94,0,25.41,0Z"></path>
  </g>
</svg>
