<?xml version="1.0" encoding="UTF-8"?>
<svg xmlns="http://www.w3.org/2000/svg" id="Layer_1" viewBox="0 0 700 694.05">
  <defs>
    <style>.cls-1{fill:#562683;}.cls-1,.cls-2{stroke-width:0px;}.cls-3{fill:#fff;font-family:Poppins-SemiBold, Poppins;font-size:64.62px;font-weight:600;}.cls-2{fill:#ffbc43;}</style>
  </defs>
  <rect class="cls-1" x="10.01" y="8.79" width="679.98" height="679.98" rx="98.26" ry="98.26"></rect>
  <text class="cls-3" transform="translate(156.43 498.13)">
    <tspan x="0" y="0">Descuentos</tspan>
    <tspan x="24.97" y="77.54">Exclusivos</tspan>
  </text>
  <g id="R1RWMn">
    <path class="cls-2" d="M352.64,113.45c2.12.84,3.82,2.25,5.42,3.85,6.97,6.99,14.03,13.88,20.96,20.92,1.44,1.46,2.75,1.78,4.67,1.25,9.88-2.68,19.78-5.25,29.68-7.87,2.02-.54,4.06-.73,6.06-.09,3.44,1.1,5.68,3.39,6.64,6.93,2.74,10.05,5.57,20.09,8.24,30.16.52,1.95,1.45,2.92,3.42,3.44,9.54,2.5,19.03,5.18,28.55,7.74,7.55,2.04,10.23,6.46,8.28,13.99-2.45,9.46-4.9,18.92-7.51,28.33-.64,2.32-.37,3.87,1.44,5.63,7.07,6.88,13.97,13.94,20.92,20.96,5.07,5.12,5.08,10.51,0,15.64-7.01,7.08-13.99,14.19-21.11,21.16-1.64,1.6-1.91,3.04-1.33,5.16,2.54,9.24,4.92,18.52,7.38,27.78,2.25,8.45-.2,12.66-8.62,14.93-9.34,2.52-18.65,5.16-28.01,7.62-1.97.52-2.91,1.48-3.43,3.44-2.62,9.89-5.34,19.76-8.11,29.61-1.79,6.36-6.37,9.01-12.82,7.36-9.91-2.54-19.81-5.16-29.68-7.84-1.92-.52-3.24-.21-4.67,1.25-7.06,7.16-14.22,14.22-21.37,21.3-5.11,5.06-10.5,5.04-15.63-.04-6.94-6.88-13.93-13.72-20.77-20.71-1.77-1.81-3.34-2.32-5.83-1.62-9.59,2.68-19.24,5.1-28.87,7.64-2.02.53-4.06.8-6.06.2-3.57-1.06-5.88-3.39-6.87-7.04-2.73-10.06-5.56-20.09-8.24-30.15-.52-1.94-1.43-2.91-3.42-3.43-9.9-2.6-19.76-5.33-29.62-8.08-6.34-1.77-9.01-6.36-7.36-12.82,2.53-9.91,5.16-19.81,7.83-29.69.52-1.91.24-3.23-1.23-4.68-7.1-6.99-14.06-14.12-21.11-21.16-1.54-1.54-2.85-3.18-3.66-5.21v-5.59c.8-2.03,2.12-3.67,3.65-5.21,7.04-7.03,14-14.15,21.09-21.14,1.46-1.43,1.79-2.74,1.27-4.66-2.7-9.96-5.35-19.93-7.89-29.93-1.59-6.25,1.14-10.86,7.33-12.59,9.76-2.72,19.52-5.46,29.33-7.99,2.33-.6,3.33-1.73,3.92-3.97,2.6-9.89,5.4-19.72,8.08-29.59.66-2.44,1.9-4.41,3.99-5.85,3.04-2.09,6.29-1.89,9.64-.99,9.61,2.56,19.24,5.05,28.84,7.67,1.92.52,3.23.2,4.66-1.26,6.98-7.09,14.1-14.05,21.14-21.09,1.53-1.54,3.19-2.84,5.21-3.65h5.59ZM291,152.81c-1.58.02-1.62,1.3-1.91,2.33-2.25,8.16-4.62,16.29-6.65,24.51-1.28,5.19-4.23,8.16-9.42,9.44-8.21,2.04-16.33,4.47-24.52,6.6-2.15.56-2.56,1.44-1.97,3.55,2.3,8.24,4.28,16.58,6.63,24.81,1.38,4.84.27,8.69-3.28,12.16-6.18,6.06-12.19,12.3-18.37,18.37-1.48,1.45-1.52,2.33-.02,3.8,6.18,6.06,12.18,12.31,18.37,18.37,3.54,3.47,4.68,7.31,3.3,12.15-2.34,8.23-4.33,16.56-6.63,24.81-.58,2.09-.23,3,1.94,3.57,8.19,2.14,16.3,4.58,24.52,6.61,5.19,1.28,8.15,4.23,9.43,9.42,2.01,8.13,4.46,16.14,6.52,24.26.62,2.44,1.61,2.82,3.91,2.18,8.15-2.28,16.39-4.24,24.53-6.57,4.84-1.39,8.68-.27,12.16,3.27,6.06,6.19,12.3,12.19,18.37,18.37,1.45,1.47,2.32,1.54,3.8.03,6.06-6.18,12.32-12.18,18.37-18.37,3.47-3.55,7.3-4.68,12.15-3.31,8.32,2.36,16.75,4.35,25.09,6.65,2.08.57,2.79-.04,3.3-1.97,2.16-8.19,4.58-16.3,6.61-24.52,1.28-5.19,4.23-8.15,9.42-9.43,8.22-2.03,16.33-4.47,24.53-6.59,2.19-.57,2.53-1.48,1.95-3.57-2.29-8.25-4.28-16.58-6.62-24.81-1.38-4.84-.28-8.68,3.28-12.15,6.19-6.05,12.19-12.3,18.36-18.37,1.47-1.44,1.55-2.31.03-3.8-6.18-6.06-12.18-12.32-18.36-18.37-3.55-3.47-4.7-7.29-3.32-12.14,2.34-8.23,4.32-16.57,6.64-24.8.66-2.33.02-3.1-2.18-3.67-8.2-2.12-16.32-4.51-24.52-6.6-4.93-1.25-7.86-4.09-9.12-9.06-2.07-8.21-4.48-16.33-6.61-24.52-.56-2.16-1.27-2.88-3.63-2.22-8.33,2.33-16.75,4.35-25.08,6.67-4.63,1.29-8.35.21-11.68-3.16-6.15-6.23-12.44-12.31-18.58-18.55-1.46-1.48-2.33-1.51-3.8-.01-6.06,6.18-12.31,12.18-18.37,18.37-3.47,3.54-7.31,4.69-12.15,3.3-8.05-2.3-16.18-4.32-24.27-6.46-.72-.19-1.44-.37-2.15-.55Z"></path>
    <path class="cls-2" d="M403.1,212.99c-.03,3.21-1.63,5.61-3.81,7.79-12.92,12.89-25.81,25.8-38.71,38.69-15.53,15.53-31.08,31.05-46.6,46.61-2.83,2.83-6.04,4.36-10.06,3.41-6.59-1.56-9.45-9.16-5.61-14.85.62-.92,1.41-1.73,2.2-2.51,28.3-28.31,56.6-56.61,84.89-84.92,2.24-2.24,4.67-3.96,8-3.97,5.48,0,9.74,4.27,9.69,9.76Z"></path>
    <path class="cls-2" d="M343.86,219.23c-.04,17.36-14.13,31.32-31.59,31.28-17.34-.03-31.36-14.17-31.32-31.59.04-17.27,14.27-31.36,31.63-31.31,17.35.05,31.31,14.16,31.28,31.62ZM324.54,218.99c-.03-6.64-5.48-12.06-12.13-12.06-6.64,0-12.1,5.43-12.13,12.07-.03,6.77,5.5,12.25,12.28,12.19,6.65-.06,12-5.52,11.97-12.2Z"></path>
    <path class="cls-2" d="M355.82,293.81c.02-17.37,14.1-31.35,31.54-31.33,17.37.02,31.39,14.12,31.37,31.53-.03,17.29-14.22,31.4-31.57,31.38-17.35-.03-31.36-14.15-31.34-31.57ZM375.15,293.87c-.02,6.66,5.37,12.13,12,12.19,6.65.05,12.16-5.33,12.25-11.95.09-6.78-5.38-12.32-12.16-12.3-6.68.01-12.07,5.4-12.09,12.07Z"></path>
  </g>
</svg>
