<?xml version="1.0" encoding="UTF-8"?>
<svg xmlns="http://www.w3.org/2000/svg" id="Layer_1" viewBox="0 0 700 694.05">
  <defs>
    <style>.cls-1{fill:#562683;}.cls-1,.cls-2{stroke-width:0px;}.cls-3{font-family:Poppins-SemiBold, Poppins;font-size:64.62px;font-weight:600;}.cls-3,.cls-2{fill:#fff;}</style>
  </defs>
  <rect class="cls-1" x="8.3" y="8.79" width="679.98" height="679.98" rx="98.26" ry="98.26"></rect>
  <text class="cls-3" transform="translate(151.59 576.46)">
    <tspan x="0" y="0">Comunidad</tspan>
  </text>
  <g id="dHNuKW">
    <path class="cls-2" d="M178.32,414.95c2.07-11.01,5.89-21.26,12.96-30.13,4.66-5.86,9.99-10.99,16.49-14.7,2.89-1.65,2.63-2.76.88-5.18-17.35-23.97-5.08-56.46,23.75-63.11,24.69-5.7,49.06,14.32,48.46,39.66-.22,9.19-3.01,17.35-8.72,24.51-1.2,1.5-1.21,2.26.51,3.29,2.55,1.53,4.98,3.29,7.36,5.09,1.29.97,2.04.87,2.9-.49,7.44-11.61,17.3-20.61,29.55-26.94,2.48-1.28,1.54-2.16.25-3.57-8.71-9.56-13.19-20.82-13.12-33.78.14-24.21,19.24-44.83,43.33-47.55,28.47-3.21,54.9,19.8,53.76,50.29-.44,11.81-4.96,22.13-12.93,30.85-1.68,1.84-2.01,2.6.53,3.95,11.76,6.21,21.36,14.89,28.61,26.07,1.27,1.95,2.2,2.27,4.06.72,2.11-1.76,4.45-3.27,6.81-4.7,1.53-.93,1.7-1.63.53-3.05-5.58-6.8-8.3-14.63-8.9-23.43-1.33-19.68,14.93-38.87,34.41-41.56,18.54-2.55,41.58,9.19,45.44,34.11,1.71,11.01-1.09,21.09-7.8,29.97-1.69,2.24-1.55,3.14.87,4.7,19.43,12.58,29.68,30.39,29.9,53.7.08,8.73.04,17.47,0,26.2-.03,7.1-4,11.1-11.1,11.1-105.92.01-211.84,0-317.75.06-5.34,0-8.76-2.4-11.06-6.91v-39.14ZM348.16,440.59c5.42,0,10.84-.16,16.25.06,3.12.13,4.25-.75,4.18-4.04-.2-9.5-.17-19.02-.03-28.52.11-7.1,6.73-11.82,13.33-9.74,4.61,1.46,7.28,5.43,7.35,11.4.1,7.96.01,15.92.04,23.88.03,8.03-.69,6.9,6.85,6.95,8.9.05,8.96.01,8.9-8.8-.06-8.94.74-17.95-1-26.79-5.87-29.92-33.61-49.07-62.16-45.73-24.04,2.81-43.88,20.13-49.18,43.8-2.62,11.67-1.1,23.57-1.4,35.36-.05,1.81,1.05,2.19,2.59,2.18,3.1-.03,6.21-.2,9.28.05,3.19.26,3.96-1.1,3.92-4.03-.13-9.06-.16-18.13,0-27.19.13-7.02,4.58-11.71,10.59-11.62,6,.09,10.09,4.92,10.11,11.95.02,8.95.1,17.91-.05,26.86-.05,2.9.6,4.2,3.84,4.05,5.52-.26,11.05-.07,16.58-.07ZM234.45,440.59c9.5,0,19,0,28.5,0,7.51,0,7.48,0,7.5-7.59.03-11.25-.61-22.56,1.95-33.65.55-2.37.15-3.93-1.57-5.56-12.7-12.04-27.56-15.87-44-10.04-16.25,5.76-25.58,17.81-27.92,35.08-.82,6.06-.2,12.14-.51,18.2-.14,2.73.78,3.65,3.56,3.61,10.83-.13,21.65-.05,32.48-.05ZM461.88,440.59c10.94,0,21.87,0,32.81,0,1.59,0,3.21.13,3.17-2.24-.14-8.38.81-16.85-1.43-25.06-4.27-15.62-14.15-26.16-29.8-30.46-15.36-4.22-29.01-.36-40.7,10.5-1.97,1.83-2.85,3.59-1.97,6.37.96,3.04,1.12,6.27,1.41,9.47.84,9.27.42,18.55.43,27.82,0,2.68.79,3.68,3.59,3.65,10.83-.13,21.65-.05,32.48-.05ZM348.28,337.98c15.63-.05,27.67-12.18,27.63-27.83-.04-15.5-12.35-27.74-27.87-27.71-15.42.03-27.66,12.41-27.63,27.95.02,15.57,12.22,27.64,27.87,27.6ZM240.4,360.43c10.96.12,19.78-8.35,19.95-19.17.17-10.54-8.59-19.54-19.17-19.68-11.04-.15-19.65,8.25-19.73,19.23-.08,11.01,8.12,19.5,18.95,19.61ZM474.87,341.03c0-10.84-8.48-19.41-19.21-19.44-10.89-.03-19.72,8.7-19.7,19.47.02,10.79,8.83,19.43,19.74,19.37,10.89-.05,19.17-8.44,19.16-19.41Z"></path>
    <path class="cls-2" d="M383.99,121.04c10.49,2.23,19.5,6.96,26.22,15.54,13.39,17.1,12.15,40.08-3.51,56.14-16.59,17.01-33.52,33.68-50.37,50.43-4.99,4.96-10.88,5.33-15.61.64-17.66-17.5-35.76-34.61-52.56-52.91-22.46-24.48-9.84-62.07,22.59-69.36.53-.12,1.05-.31,1.58-.47h13.27c7.79,1.65,14.97,4.59,20.99,9.95,1.13,1.01,2,1,3.13,0,6.02-5.37,13.22-8.28,20.99-9.94h13.27ZM398.55,162.64c-.1-8.8-4.16-15.33-11.96-19.11-7.93-3.84-15.73-2.97-22.67,2.62-2.91,2.35-5.44,5.17-8.17,7.75-4.67,4.42-10.47,4.44-15.11.04-2.65-2.51-5.11-5.22-7.9-7.56-8.91-7.44-21.3-6.63-29.3,1.78-7.68,8.07-7.84,21.03.11,29.15,14.07,14.37,28.41,28.48,42.59,42.75,1.5,1.51,2.51,1.61,4.06.05,14.17-14.27,28.44-28.45,42.6-42.74,3.98-4.02,5.89-9.01,5.77-14.74Z"></path>
  </g>
</svg>
