<?xml version="1.0" encoding="UTF-8"?>
<svg xmlns="http://www.w3.org/2000/svg" id="Layer_1" viewBox="0 0 700 694.05">
  <defs>
    <style>.cls-1{fill:#562683;}.cls-1,.cls-2{stroke-width:0px;}.cls-3{font-family:Poppins-SemiBold, Poppins;font-size:64.62px;font-weight:600;}.cls-3,.cls-2{fill:#fff;}</style>
  </defs>
  <rect class="cls-1" x="10.01" y="8.79" width="679.98" height="679.98" rx="93.98" ry="93.98"></rect>
  <text class="cls-3" transform="translate(193.91 573.54)">
    <tspan x="0" y="0">Bienestar</tspan>
  </text>
  <g id="mYTIQx">
    <path class="cls-2" d="M301.49,476.91c-27.93-5.33-46.37-23.53-61.68-45.79-13.67-19.87-22.8-41.83-28.76-65.12-.73-2.85-1.9-3.83-4.81-3.73-6.18.21-12.38.11-18.57.05-6.22-.06-10.62-4.33-10.67-10.22-.05-6.07,4.36-10.41,10.75-10.48,4.95-.05,9.91-.14,14.86.03,2.93.1,3.56-.86,3.23-3.76-2.34-20.64-1.97-41.18,4.68-61.08,11.68-34.98,35.9-55.63,72.19-62.19,19.12-3.46,37.15-.53,54.12,8.93,1.48.83,3,1.81,2.93-1.22-.27-12.37.62-24.76-.51-37.11-1.48-16.1-12.82-29.15-28.53-32.96-1.53-.37-3.09-.66-4.56-1.19-4.97-1.8-7.69-6.61-6.8-11.82.83-4.82,5.22-8.53,10.41-8.3,6.98.31,13.4,2.81,19.51,6.02,7.89,4.15,14.57,9.79,19.76,17.06,1.41,1.98,2.14,2.16,3.9.28,10.45-11.19,23.27-16.96,38.73-16.69,8.44.15,16.88,0,25.32.04,6.95.03,11.01,4.2,11.04,11.22.1,26.86-22.68,49.82-49.6,50.01-4.95.03-9.91.1-14.86-.02-2.38-.06-3.14.85-3.11,3.16.11,6.53.13,13.06,0,19.58-.06,3.01.8,3.21,3.23,1.85,12.65-7.03,26.16-10.73,40.72-10.17,39.48,1.53,72.7,23.61,85.44,63.76,6.3,19.88,6.94,40.23,4.52,60.76-.33,2.77.16,3.97,3.21,3.83,4.38-.2,8.79.16,13.16-.1,5.76-.35,9.77,1.92,12.28,7.04v6.75c-2.56,5.29-6.77,7.37-12.61,7.05-5.38-.29-10.8.09-16.19-.12-2.97-.11-4.29.77-5.07,3.83-5.93,23.16-14.98,45.01-28.56,64.78-15.35,22.34-33.76,40.71-61.83,46.02h-16.21c-10.91-1.93-21.29-5.32-30.69-11.33-1.17-.75-2.27-.75-3.45,0-9.4,6.02-19.77,9.43-30.69,11.33h-16.21ZM383.57,355.6c.67-1.73,1.09-2.75,1.47-3.78,5.28-14.48,10.5-28.98,15.84-43.43,1.92-5.19,5.72-7.58,10.89-7.28,4.13.24,6.73,2.73,8.87,5.96,7.04,10.59,14.15,21.13,21.12,31.77,1.32,2.01,2.78,2.87,5.22,2.82,7.54-.15,15.08-.12,22.62-.01,2.21.03,3.23-.65,3.53-2.93.69-5.25,1.02-10.51,1.3-15.79.82-15.12-.85-29.89-6.24-44.08-12.3-32.36-39.68-44.37-67.11-44.63-16.23-.15-29.95,7.22-41.83,18-6.72,6.1-11.47,6.08-18.22.03-15.68-14.07-33.6-20.78-54.91-16.95-21.07,3.79-38.04,13.71-48.81,32.58-12.79,22.4-13.35,46.69-10.06,71.45.29,2.22,1.66,2.29,3.35,2.29,7.43-.03,14.86-.12,22.28.05,2.68.06,4.31-.8,5.78-3.06,7.01-10.74,14.18-21.38,21.3-32.05,2.03-3.04,4.63-5.21,8.46-5.44,5.75-.35,9.58,2.54,11.4,8.85,4.74,16.42,9.4,32.87,14.1,49.3.87,3.03,1.79,6.04,2.94,9.88,3.78-12.08,7.28-23.24,10.77-34.39,4.06-12.99,8.07-25.99,12.2-38.96,1.93-6.07,6.17-8.92,11.89-8.13,4.83.66,7.28,3.96,8.9,8.23,4.8,12.62,9.67,25.21,14.52,37.8,2.73,7.09,5.47,14.17,8.45,21.9ZM413.68,334.61c-1.47,4.01-2.71,7.35-3.93,10.69-5.23,14.38-10.42,28.77-15.71,43.13-2.12,5.75-6.52,8.47-11.99,7.55-4.63-.77-7.05-3.97-8.63-8.12-4.84-12.72-9.75-25.42-14.64-38.12-2.44-6.33-4.88-12.65-7.65-19.81-4.31,13.79-8.32,26.66-12.35,39.52-4.03,12.88-8.02,25.78-12.12,38.64-1.99,6.25-6.78,9.32-12.53,8.09-4.89-1.04-7.15-4.57-8.44-9.11-5.48-19.37-11.03-38.72-16.57-58.08-1.13-3.94-2.29-7.87-3.45-11.86-1.58.64-1.96,1.78-2.56,2.68-3.77,5.6-7.53,11.21-11.24,16.85-2.55,3.88-5.96,5.82-10.74,5.73-8.33-.17-16.66-.05-24.99-.04-4.27,0-4.35.08-3.19,4.1,4.81,16.62,11.43,32.47,20.53,47.21,8.23,13.32,17.92,25.38,31.16,34.15,10.78,7.14,22.4,10.24,35.28,7.2,8.47-2,15.98-5.91,22.92-11.09,5.2-3.88,9.23-3.77,14.54-.05,2.85,2,5.7,4.07,8.76,5.7,13.98,7.42,28.29,9.34,42.97,1.99,6.91-3.46,13.05-8.01,18.47-13.48,20.29-20.47,32.08-45.62,40.02-72.89.76-2.59-.43-2.86-2.48-2.85-8.89.04-17.78-.05-26.68.04-4.23.04-7.36-1.73-9.67-5.14-1.77-2.61-3.48-5.26-5.23-7.88-3.16-4.73-6.34-9.45-9.88-14.74ZM395.37,158.38c-2.72-.11-6.19,0-9.64.61-10.13,1.78-17.37,7.42-22.1,16.46-1.07,2.04-.61,2.82,1.74,2.75,3.71-.11,7.42.08,11.12-.06,11.9-.44,21.13-5.48,27.08-16.01,1.9-3.35,1.67-3.72-2.04-3.74-1.8,0-3.6,0-6.17,0Z"></path>
  </g>
</svg>
