<?xml version="1.0" encoding="UTF-8"?>
<svg xmlns="http://www.w3.org/2000/svg" id="Layer_1" viewBox="0 0 700 697.86">
  <defs>
    <style>.cls-1{fill:#ffbc43;}.cls-1,.cls-2{stroke-width:0px;}.cls-2{fill:#fff;}</style>
  </defs>
  <circle class="cls-1" cx="350.12" cy="349.7" r="341.85"></circle>
  <g id="_1ofeEK">
    <path class="cls-2" d="M161.66,354.35c0-2.94,0-5.89,0-8.83.13-2.07.37-4.14.38-6.22.09-16.43-.15-32.87.28-49.3.37-14.32.66-28.69,3.56-42.8,8.45-41.03,32.15-68.21,72.76-80,16.3-4.74,33.14-5.52,49.9-5.66,46.47-.4,92.95-1.14,139.41.61,10.77.41,21.5,1.63,32,4.31,34.71,8.88,58.84,29.66,71.17,63.55,5.42,14.9,7.53,30.47,7.59,46.23.19,47.83.11,95.66.04,143.49-.02,10.79-.96,21.54-2.97,32.17-4.97,26.33-17.11,48.38-38.9,64.55-17.92,13.3-38.49,18.98-60.39,20.7-6.22.49-12.45.83-18.67,1.23h-133.97c-1.45-.16-2.91-.43-4.36-.45-10.56-.11-21.04-1.05-31.4-3.04-28.24-5.44-51.22-19.16-67.17-43.49-12.63-19.26-16.82-41.01-17.99-63.57-1.16-22.41-.72-44.83-.88-67.25-.01-2.07-.25-4.14-.38-6.21ZM350.83,504.16c21.84.36,43.67-.37,65.49-.77,10.51-.19,21.07-.62,31.45-2.79,27.23-5.7,45.1-21.43,52.44-48.61,3.46-12.8,3.87-25.96,4.07-39.03.45-30.66.45-61.33.35-92-.07-21.08.39-42.19-2.44-63.17-4.2-31.11-23.17-51.51-53.78-57.99-14.74-3.12-29.76-3.14-44.67-3.3-35.2-.4-70.42-.36-105.62-.01-14.07.14-28.19.4-42.16,2.77-29.2,4.95-48.62,23.22-55.15,51.99-2.99,13.14-3.31,26.54-3.43,39.86-.35,39.37-.32,78.76,0,118.13.1,12.22.45,24.51,2.79,36.62,5.38,27.94,21.18,46.3,49.06,53.66,11.84,3.13,24.01,3.65,36.11,3.88,21.83.42,43.65,1.13,65.49.77Z"></path>
    <path class="cls-2" d="M350.52,447.29c-53.41-.1-97.1-44-97.04-97.51.06-53.4,43.99-97.22,97.42-97.16,53.55.05,97.47,44.18,97.26,97.72-.21,53.44-44.13,97.06-97.63,96.95ZM350.81,412.27c34.42,0,62.32-27.85,62.34-62.22.02-34.39-27.87-62.4-62.17-62.43-34.61-.03-62.49,27.84-62.48,62.45.02,34.43,27.84,62.2,62.31,62.2Z"></path>
    <path class="cls-2" d="M451.12,272.19c-12.77-.06-22.6-10.12-22.55-23.1.05-12.61,10.45-22.95,23.01-22.87,12.42.08,23.05,10.79,22.96,23.14-.1,12.77-10.48,22.89-23.42,22.83Z"></path>
  </g>
</svg>
