<?xml version="1.0" encoding="UTF-8"?>
<svg xmlns="http://www.w3.org/2000/svg" id="Layer_1" viewBox="0 0 700 697.86">
  <defs>
    <style>.cls-1{fill:#ffbc43;stroke-width:0px;}</style>
  </defs>
  <g id="XrW7pp">
    <path class="cls-1" d="M350.03,691.55c-188.57,1.27-341.71-152.69-342.12-341.9C7.49,155.15,167.33,8,350.27,7.85c189.7-.15,341.92,154.04,341.83,343.92-.1,191.6-159.4,340.63-342.06,339.78ZM378.78,499.64c0-33.95,0-67.9,0-101.84,0-5.68,0-5.73,5.74-5.75,19.63-.08,39.26-.14,58.88-.14,2.62,0,4.35-.35,4.94-3.5,3.03-16.25,6.31-32.46,9.44-48.69,1.82-9.45,3.63-18.91,4.59-28.49.52-5.2,0-5.74-5.19-6.28-4.29-.44-8.61-.83-12.92-.86-19.38-.15-38.75-.4-58.12.5-5.35.25-5.34.08-5.28-5.1.28-22.58.61-45.17.81-67.75.09-10.16,4.7-17.42,13.57-22.05,4.95-2.58,10.24-4.26,15.74-5.28,16.23-3.03,32.66-2.93,49.07-2.83,3.5.02,4.73-.97,4.65-4.6-.35-14.93-.44-29.86-.6-44.79-.06-6.05-.12-12.1-.04-18.15.04-2.75-.88-3.97-3.82-4.07-23.67-.82-47.32-2.48-71.02-.85-14.58,1-28.99,2.82-42.91,7.41-21.76,7.17-38.42,20.32-48.14,41.52-7.22,15.75-10.38,32.45-10.83,49.57-.65,24.43-.58,48.87-.82,73.31q-.06,5.9-5.91,5.91c-22.59.04-45.18.11-67.77.08-2.77,0-4.33.49-4.38,3.8-.33,25.42-.77,50.83-1.3,76.25-.07,3.26,1,4.32,4.23,4.26,7.77-.17,15.55-.02,23.33,0,15.43.04,30.86.17,46.29.04,3.72-.03,5.02,1.18,4.86,4.92-.18,4.3.3,8.62.38,12.94.42,22.95.01,45.91.68,68.87.68,23.44.12,46.9.75,70.35.46,17.27.24,34.56.37,51.84.05,6.55.11,6.56,6.48,6.56,26.29,0,52.59,0,78.88,0q5.36,0,5.37-5.25c0-33.95,0-67.9,0-101.84Z"></path>
  </g>
</svg>
