<?xml version="1.0" encoding="UTF-8"?>
<svg xmlns="http://www.w3.org/2000/svg" id="Layer_1" viewBox="0 0 700 691.55">
  <defs>
    <style>.cls-1{fill:#562683;}.cls-1,.cls-2{stroke-width:0px;}.cls-3{fill:#fff;font-family:Poppins-SemiBold, Poppins;font-size:64.62px;font-weight:600;}.cls-2{fill:#ffbc43;}</style>
  </defs>
  <rect class="cls-1" x="10.01" y="7.85" width="679.98" height="679.98" rx="98.26" ry="98.26"></rect>
  <text class="cls-3" transform="translate(111.52 575.51)">
    <tspan x="0" y="0">Celebraciones</tspan>
  </text>
  <g id="i0Yvx3">
    <path class="cls-2" d="M385.83,292.18c-14.86-.11-26.95-5.62-35.21-18.35-1.27-1.96-1.89-1.45-2.9.12-8.74,13.59-21.57,18.43-37.14,17.09-2.83-.24-3.92.8-4.71,3.3-7.96,25.06-15.99,50.09-24.1,75.11-.71,2.19-.16,3.81.92,5.6,8.39,13.99,16.73,28.01,25.08,42.03.97,1.62,2.03,3.19,1.56,5.26-.83,3.66-3.91,5.25-8.03,3.94-11.95-3.79-23.88-7.63-35.82-11.46-19.12-6.13-38.25-12.25-57.36-18.42-3.89-1.25-5.34-3.34-4.84-6.44.47-2.9,2.49-4.26,4.94-5.34,12.09-5.31,23.95-11.22,36.31-15.8,8.6-3.19,13.1-8.22,15.66-17.12,6.4-22.27,13.89-44.24,21.04-66.29.78-2.41.42-3.7-1.78-5.14-12.04-7.88-18.99-19-20.44-33.38-.45-4.47.52-8.85,1.88-13.1,10.37-32.32,20.77-64.64,31.17-96.95,2.13-6.63,4.19-7.67,10.86-5.52,14.68,4.73,29.37,9.42,44.01,14.25,2.47.82,4.65.78,7.07-.02,13.49-4.45,27-8.8,40.51-13.18,1.69-.55,3.36-1.16,5.09-1.56,4.68-1.09,7.3.32,8.75,4.8,10.52,32.39,21.08,64.77,31.48,97.21,4.06,12.68,1.49,24.26-6.6,34.77-3.63,4.71-7.59,8.99-12.89,11.81-1.99,1.06-1.39,2.41-.9,3.93,5.53,17.22,11.04,34.44,16.55,51.66,2.47,7.71,5.03,15.4,7.32,23.16.8,2.7,2.24,4.26,4.82,5.37,14.46,6.25,28.86,12.65,43.27,19.03,2.59,1.15,5.88,1.94,5.39,5.77-.74,5.73-1.18,7.74-6.28,9.36-31.07,9.91-62.12,19.89-93.16,29.9-2.59.84-4.56.24-6.26-1.7-1.91-2.18-1.55-4.55-.23-6.8,4.6-7.85,9.27-15.66,13.92-23.48,3.97-6.68,7.92-13.37,11.98-19.99,1.01-1.65,1.23-3.15.64-5.01-8.2-25.45-16.36-50.91-24.48-76.38-.53-1.66-1.24-2.41-3.07-2.1-1.29.22-2.66.04-3.99.04ZM387.27,278.61c8.28-.01,25.71-5.83,32.18-10.61,9.13-6.75,13.55-18.83,10.43-29.53-2.82-9.68-6.08-19.23-9.03-28.88-.69-2.27-1.71-2.61-3.89-1.93-21.47,6.71-42.96,13.36-64.48,19.94-2.55.78-2.98,1.9-2.17,4.35,3.13,9.35,6.1,18.76,9.09,28.16,1.97,6.21,5.77,10.93,11.39,14.16,5.21,3,10.8,4.55,16.47,4.34ZM415.52,194.47c-.15-.57-.24-1.01-.37-1.43-5.07-15.6-10.17-31.18-15.21-46.79-.68-2.12-1.62-2.75-3.89-2-21.37,7.03-42.76,13.99-64.17,20.9-2.21.71-3,1.61-2.19,4.07,4.97,15.05,9.86,30.12,14.62,45.24.84,2.67,2.03,2.76,4.35,1.99,8.2-2.73,16.44-5.32,24.7-7.86,13.13-4.04,26.3-7.98,39.43-12.01,1.12-.34,2.86-.22,2.72-2.09ZM271.09,242.88c-.02,12.41,7.84,23.73,19.19,27.83,5.32,1.92,10.74,3.55,16.08,5.41,5.16,1.8,10.34,2.11,15.72,1.09,15.96-3.02,24.71-17.33,19.88-32.73-1.13-3.6-2.37-7.16-3.36-10.8-.68-2.5-2.11-3.86-4.57-4.72-16.86-5.87-33.7-11.82-50.49-17.89-2.54-.92-3.58-.36-4.32,2.13-2.04,6.91-4.25,13.78-6.41,20.65-.97,3.08-1.95,6.14-1.71,9.02ZM331.43,153.25c.02-.28.05-.57.07-.85-8.95-2.83-17.9-5.67-26.86-8.47-1.85-.58-2.27.85-2.69,2.14-5.61,17.17-11.17,34.36-16.88,51.51-.79,2.38.05,3.11,2.07,3.81,9.01,3.12,17.97,6.36,26.96,9.54,6.23,2.21,12.47,4.39,19.33,6.8-.68-2.31-1.14-3.98-1.65-5.63-4.8-15.57-9.62-31.13-14.39-46.71-1.63-5.32-.4-7.56,4.88-9.26,3.05-.98,6.11-1.92,9.16-2.88ZM292.08,409.16c-.9-1.66-1.33-2.54-1.84-3.38-5.99-9.99-11.89-20.03-18.04-29.92-2-3.21-2.34-6.1-1.12-9.7,7.87-23.32,15.57-46.7,23.32-70.06.98-2.95,1.92-5.9,2.84-8.87.33-1.06.17-1.97-1.15-2.31-1.23-.32-1.91.17-2.22,1.33-.11.43-.23.86-.37,1.28-8.53,26.26-17.08,52.51-25.56,78.78-.89,2.74-2.42,4.52-5.11,5.67-9.08,3.87-18.11,7.86-27.11,11.91-3.06,1.38-6.32,2.39-9.63,4.66,22.07,6.9,43.61,13.63,65.99,20.62ZM474.6,389.23c-.02-.3-.05-.6-.07-.89-11.76-5.17-23.51-10.39-35.31-15.48-2.66-1.15-4.31-2.85-5.18-5.6-5.1-16.06-10.26-32.1-15.41-48.14-3.32-10.34-6.64-20.69-10-31.02-.3-.93-.29-2.46-2.03-1.94-1.69.5-1.42,1.7-.97,2.94.23.62.42,1.26.62,1.9,8.2,25.43,16.36,50.87,24.63,76.27,1.01,3.09.77,5.67-.97,8.48-6.12,9.9-12.05,19.93-18.01,29.93-.64,1.08-1.64,2.05-1.68,3.88,21.6-6.82,42.99-13.58,64.39-20.33Z"></path>
  </g>
</svg>
