<?xml version="1.0" encoding="UTF-8"?>
<svg xmlns="http://www.w3.org/2000/svg" id="Layer_1" viewBox="0 0 700 691.55">
  <defs>
    <style>.cls-1{fill:#562683;}.cls-1,.cls-2{stroke-width:0px;}.cls-3{fill:#fff;font-family:Poppins-SemiBold, Poppins;font-size:64.62px;font-weight:600;}.cls-2{fill:#ffbc43;}</style>
  </defs>
  <rect class="cls-1" x="10.01" y="7.85" width="679.98" height="679.98" rx="98.26" ry="98.26"></rect>
  <text class="cls-3" transform="translate(188.97 497.18)">
    <tspan x="0" y="0">Feedback</tspan>
    <tspan x="20.26" y="77.54">y Mejora</tspan>
  </text>
  <g id="UFC9Sv">
    <path class="cls-2" d="M348.6,372.66c-31.45,0-62.91-.12-94.36.1-7,.05-11.53-3.89-11.14-11.25.55-10.1-.46-20.24.63-30.35,2.24-20.94,10.28-39.43,23.67-55.59,11.34-13.69,25.37-23.77,41.83-30.47,3.08-1.25,3.08-1.28.43-3.45-15.59-12.75-23.66-29.25-23.64-49.33.03-30.06,23.29-56.41,52.89-60.89,35.26-5.35,67.2,18.6,72.03,52.65,3.21,22.62-4.5,41.55-21.71,56.56-3.77,3.28-3.8,3.07.76,5.12,36.16,16.34,57.67,44.01,63.74,83.29,1.82,11.77.72,23.72.7,35.59,0,4.21-3.73,7.62-7.95,7.96-1.26.1-2.53.07-3.8.07-31.36,0-62.72,0-94.07,0ZM348.79,354.73c27.65,0,55.3,0,82.95,0,.88,0,1.75-.04,2.63,0,1.43.05,2.17-.51,2.18-2.03.05-11.7-.2-23.36-3.66-34.69-12.75-41.66-52.07-67.47-95.45-61.65-32.92,4.42-55.99,22.73-69.54,53.01-5.91,13.2-6.8,27.26-6.74,41.45.02,3.9.01,3.91,3.81,3.91,27.94,0,55.89,0,83.83,0ZM348.71,148.77c-24.6.03-44.43,19.81-44.41,44.33.01,24.44,19.92,44.2,44.54,44.21,24.76,0,44.61-19.81,44.57-44.48-.04-24.4-20.02-44.08-44.69-44.05Z"></path>
    <path class="cls-2" d="M200.03,320.1c-.6-14.62,2.26-29.83,9.83-44.04,8.02-15.05,19.6-26.55,34.63-34.5,2.64-1.4,2.32-2.24.66-4.11-8.49-9.57-12.71-20.91-12.88-33.61-.32-24.03,17.67-46.01,41.24-50.67,2.57-.51,5.18-.83,7.79-1.12,1.7-.19,2.57.42,1.32,2.13-3.73,5.15-6.77,10.68-8.95,16.67-.5,1.37-1.79,1.66-2.92,2.21-13.34,6.39-20.41,16.99-20.09,31.78.27,12.29,6.32,21.61,16.86,27.95,1.41.85,2.98,1.44,4.41,2.28,3.08,1.82,5,4.5,4.72,8.13-.29,3.83-2.57,6.45-6.17,7.78-1.64.6-3.38.91-5.06,1.39-24.82,7.15-43.35,28.97-46.55,54.59-.55,4.38-.35,8.74-.5,13.11-.07,1.89.71,2.72,2.58,2.55.1,0,.19,0,.29,0,7.32.23,7.39.24,6.36,7.35-.4,2.72-.45,5.43-.54,8.15-.06,1.94-.94,2.8-2.89,2.78-4.87-.05-9.74.14-14.6-.07-5.89-.26-9.43-4.13-9.53-10.04-.05-3.11,0-6.23,0-10.69Z"></path>
    <path class="cls-2" d="M480.72,340.87c-2.53,0-5.06,0-7.59,0-1.67,0-2.52-.8-2.52-2.49-.01-4.39-.53-8.73-1.25-13.05-.35-2.1.48-2.69,2.51-2.73,7.45-.16,7.45-.22,7.42-7.58-.12-29.95-20.33-55.67-49.73-63.36-1.31-.34-2.67-.69-3.84-1.34-2.89-1.62-4.75-4.1-4.78-7.51-.03-3.67,1.95-6.3,5.11-7.9,3.93-1.99,7.7-4.14,10.87-7.26,16.76-16.54,11.99-44.36-9.41-54.24-2.21-1.02-3.59-2.29-4.41-4.58-1.82-5.07-4.58-9.66-7.67-14.05-.48-.68-1.45-1.37-.83-2.28.54-.8,1.62-.46,2.46-.41,22.9,1.29,43.46,19.59,47.32,42.38,2.73,16.09-1.17,30.51-11.86,42.94-1.62,1.88-2,2.71.62,4.16,25.53,14.15,40.19,35.8,43.88,64.75,1.04,8.21.8,16.52.53,24.79-.2,6.1-3.68,9.42-9.8,9.78-2.33.14-4.67.02-7.01.02Z"></path>
  </g>
</svg>
