<?xml version="1.0" encoding="UTF-8"?>
<svg xmlns="http://www.w3.org/2000/svg" id="Layer_1" viewBox="0 0 700 694.05">
  <defs>
    <style>.cls-1{fill:#562683;}.cls-1,.cls-2{stroke-width:0px;}.cls-3{font-family:Poppins-SemiBold, Poppins;font-size:64.62px;font-weight:600;}.cls-3,.cls-2{fill:#fff;}</style>
  </defs>
  <rect class="cls-1" x="10.01" y="8.79" width="679.98" height="679.98" rx="98.26" ry="98.26"></rect>
  <text class="cls-3" transform="translate(114.72 573.55)">
    <tspan x="0" y="0">Sostenibilidad</tspan>
  </text>
  <g id="y1BOf1">
    <path class="cls-2" d="M374.39,108.13c6.4,2.75,8.91,7.47,8.57,14.52-.47,9.73-.12,19.51-.12,29.75,3.77,0,7.1-.08,10.42.02,7.68.23,11.78,4.53,11.61,12.24-.26,11.92.74,24.06-1.23,35.69-4.12,24.34-19.62,39.3-42.97,46.38-2.01.61-3.65.7-3.64,3.55.09,35.35.06,70.7.06,106.61,1.09-.66,2.02-1.02,2.67-1.66,7.59-7.55,15.07-15.21,22.73-22.68,2.05-2,2.09-3.47.59-5.86-13.12-20.87-10.4-51.02,6.34-69.12,6.44-6.96,13.23-13.61,20.01-20.25,5.74-5.61,12.02-5.48,17.75.23,2.15,2.14,4.01,4.57,6.85,7.84,8.09-8.52,15.35-16.36,22.84-23.98,4.75-4.83,10.51-5.21,15.26-1.47,5.45,4.29,5.77,11.46.53,16.87-7.03,7.25-14.21,14.35-21.32,21.52-.53.53-.99,1.12-1.44,1.62,6.88,6.94,13.66,13.78,21.09,21.27,7.39-7.69,14.65-15.35,22.03-22.9,5.26-5.39,11.8-5.67,16.59-.89,4.86,4.83,4.58,11.2-.88,16.57-7.42,7.29-14.94,14.48-23.66,22.92,3.29,2.71,6.13,4.74,8.6,7.15,4.3,4.19,5.4,9.92,1.63,14.05-10.38,11.38-20.12,23.74-34.17,30.9-19.27,9.82-38.57,9-57.46-1.53-.92-.51-1.87-.97-3.26-1.69-12.51,12.6-24.86,25.34-37.58,37.7-4.13,4.01-6.22,8-5.91,13.9.5,9.29.13,18.62.13,28.49,4.73,0,9.1-.01,13.47,0,6.12.02,12.25.04,18.37.09,6.39.05,10.69,2.88,12.03,7.87,1.45,5.38-.74,10.04-6.26,13.4-.36.22-.65.57-.98.86h-94.65c-2.41-1.98-5.56-3.51-7.1-6.02-4.33-7.07.86-15.87,9.23-16.04,8.87-.18,17.75-.07,26.63-.09,2.12,0,4.23,0,6.89,0,0-12.06.04-23.79-.07-35.52,0-.89-.87-1.92-1.58-2.64-13.72-13.77-27.48-27.49-41.25-41.22-.2-.2-.53-.26-1.02-.49-8.84,5.06-18.21,8.99-28.7,9.53-17.2.88-32.26-4.28-44.8-16.18-5.99-5.68-11.77-11.6-17.58-17.47-7.15-7.22-7.03-12.86.4-19.92,1.76-1.67,3.66-3.19,6.1-5.3-8.37-8.22-16.14-15.77-23.81-23.41-3.65-3.64-4.58-8.57-2.64-12.64,2.03-4.27,7.14-7.56,11.66-6.33,3.17.87,6.29,3.01,8.72,5.33,7.16,6.86,13.95,14.09,20.82,21.1,7.2-7.25,13.97-14.05,21.08-21.2-7.57-7.53-15.12-15.1-22.73-22.59-3.22-3.17-4.6-6.86-3.36-11.23,2.42-8.52,11.98-11.06,18.58-4.79,6.66,6.32,13.04,12.92,19.5,19.45,1.18,1.19,2.1,2.63,3.48,4.4,3.14-3.22,5.57-5.89,8.2-8.35,4.15-3.88,9.96-4.91,13.8-1.32,11.68,10.92,24.62,20.89,31.67,35.86,8.75,18.59,7.92,37.03-2.08,54.9-1.76,3.15-1.63,4.86.95,7.32,8.07,7.69,15.88,15.66,24.24,23.97.24-1.41.54-2.33.54-3.25-.01-34.28-.07-68.56-.08-102.84,0-2.1-.03-3.55-2.76-4.29-27.92-7.58-44.75-29.41-45.15-58.39-.12-8.42-.02-16.83.05-25.25.05-6.28,4.98-10.82,11.75-10.89,3.31-.03,6.63,0,10.34,0,0-10.22.34-19.99-.11-29.73-.33-7.03,2.01-11.82,8.57-14.44h5.51c6.57,2.92,8.71,8,8.37,15.06-.46,9.56-.11,19.16-.11,28.99h29.43c0-10.12.26-20.02-.09-29.89-.24-6.76,2.05-11.51,8.35-14.16h5.51ZM220.83,313.07c3.12,2.67,6.02,4.94,8.68,7.46,6.08,5.74,12.62,10.36,21.09,12.19,21.7,4.66,42.96-11.9,44.06-33.99.86-17.4-9.27-28.15-20.97-38.27-17.37,17.29-34.56,34.4-52.87,52.61ZM470.01,312.49c-17.67-17.58-34.9-34.71-51.83-51.55-3.83,3.63-8,7.24-11.75,11.24-10.38,11.06-12.39,29.32-4.87,42.23,8.49,14.56,24.45,21.5,40.18,18.16,12.49-2.65,19.94-11.8,28.28-20.08ZM309.32,174.87c0,6.58-.63,12.74.12,18.73,1.9,15.13,10.34,25.65,24.72,30.66,14.53,5.06,27.34,1.23,38.22-9.36,11.47-11.17,11.01-25.4,10.04-40.04h-73.11Z"></path>
  </g>
</svg>
