<?xml version="1.0" encoding="UTF-8"?>
<svg xmlns="http://www.w3.org/2000/svg" id="Layer_1" viewBox="0 0 700 694.05">
  <defs>
    <style>.cls-1{fill:#562683;}.cls-1,.cls-2{stroke-width:0px;}.cls-3{fill:#fff;font-family:Poppins-SemiBold, Poppins;font-size:64.62px;font-weight:600;}.cls-2{fill:#ffbc43;}</style>
  </defs>
  <rect class="cls-1" x="10.01" y="8.79" width="679.98" height="679.98" rx="98.26" ry="98.26"></rect>
  <text class="cls-3" transform="translate(229.81 498.13)">
    <tspan x="0" y="0">Acceso</tspan>
    <tspan x="-60.58" y="77.54">Anticipado</tspan>
  </text>
  <g id="R5PKPo">
    <path class="cls-2" d="M476.56,119.12c6.01,2.69,8.17,7.28,8.15,13.86-.15,62.03-.13,124.05-.02,186.08.01,5.8-2.12,9.72-7.02,12.76-29.18,18.1-58.26,36.36-87.39,54.53-4.94,3.08-9.83,2.87-13.91-.43-2.86-2.31-4.09-5.32-4.08-8.98.03-13.67-.05-27.33.07-41,.02-2.66-.75-3.45-3.41-3.44-20.15.1-40.3.06-60.45.05-6.58,0-12.68-1.48-17.75-5.98-5.25-4.66-8.23-10.49-8.27-17.52-.11-18.31-.06-36.62-.03-54.93.01-6.23,4.54-11.28,10.24-11.62,6.54-.38,11.3,3.48,12.26,10.02.2,1.38.26,2.79.26,4.19.02,16.47,0,32.94.02,49.41,0,3.54.14,3.67,3.73,3.67,20.06,0,40.13-.04,60.19.06,2.57.01,3.23-.8,3.22-3.29-.07-39.42.02-78.85-.12-118.27-.02-5.83,2.2-9.7,7.1-12.71,17.24-10.59,34.35-21.39,51.51-32.12.59-.37,1.15-.76,1.83-1.21-.72-.78-1.55-.5-2.25-.5-40.56-.02-81.13-.02-121.69-.01-3.4,0-3.52.13-3.53,3.57-.01,5.96.1,11.92-.04,17.87-.2,7.98-6.31,13.17-13.67,11.82-4.92-.91-8.92-5.23-9.01-10.26-.15-7.97-.49-15.98.1-23.91.73-9.74,6.17-16.52,15.22-20.29,1.37-.57,2.81-.95,4.22-1.41,58.18,0,116.35,0,174.53,0ZM461.88,233.22c0-26.45,0-52.9-.02-79.35,0-.81.47-1.93-.5-2.38-.75-.34-1.41.52-2.05.93-20.58,12.84-41.13,25.71-61.74,38.51-1.99,1.24-2.86,2.58-2.85,5.02.08,52.46.06,104.92.08,157.38,0,.92-.49,2.18.4,2.7.91.52,1.73-.56,2.51-1.04,20.14-12.56,40.21-25.21,60.42-37.65,2.94-1.81,3.86-3.78,3.85-7.14-.14-25.66-.08-51.32-.08-76.98Z"></path>
    <path class="cls-2" d="M215.29,205.86c2.29-6.2,6.92-8.55,13.31-8.52,19.36.09,38.72.04,58.08.03,3.94,0,7.5,1,10.07,4.17,2.95,3.65,3.63,7.73,1.6,12.05-1.97,4.2-5.46,6.36-10.01,6.54-4.55.19-9.11.06-13.66.06-15.07,0-30.14-.18-45.2.09-6.6.12-11.43-1.96-14.19-8.11v-6.31Z"></path>
    <path class="cls-2" d="M215.29,273.15c2.34-6.16,7.01-8.54,13.36-8.46,8.14.1,16.28-.02,24.42.04,6.68.05,11.11,3.37,12.41,9.14,1.48,6.55-3.34,13.36-10.07,13.54-9.97.26-19.96.23-29.93,0-5.11-.12-8.14-3.56-10.2-7.94v-6.31Z"></path>
    <path class="cls-2" d="M304.98,231.05c-.12-2.4.74-4.72,2.33-6.82,3.39-4.47,6.68-9,10.12-13.43,1.1-1.41,1.19-2.42.04-3.88-3.35-4.27-6.57-8.65-9.8-13.01-4.22-5.7-3.47-12.73,1.72-16.56,5.33-3.93,12.09-2.75,16.39,2.94,5.34,7.05,10.65,14.12,15.92,21.23,3.49,4.71,3.61,9.62.16,14.35-5.47,7.5-11.05,14.92-16.7,22.28-3.16,4.11-8.24,5.43-12.95,3.69-4.45-1.64-7.23-5.7-7.24-10.8Z"></path>
    <path class="cls-2" d="M405.96,253.71c0-2.01-.05-4.03.01-6.04.19-5.85,4.94-10.64,10.74-10.9,5.72-.25,10.88,3.93,11.63,9.63.65,4.88.65,9.79,0,14.67-.78,5.84-6.01,9.96-11.9,9.58-5.68-.36-10.29-5.13-10.47-10.89-.06-2.01-.01-4.03-.01-6.04Z"></path>
  </g>
</svg>
