<?xml version="1.0" encoding="UTF-8"?>
<svg xmlns="http://www.w3.org/2000/svg" id="Layer_1" viewBox="0 0 700 192.96">
  <defs>
    <style>.cls-1{fill:#562683;}.cls-1,.cls-2,.cls-3,.cls-4{stroke-width:0px;}.cls-2{fill:#000;opacity:.2;}.cls-3{fill:#ffbc43;}.cls-4{fill:#e14a01;}</style>
  </defs>
  <path class="cls-1" d="M224.66,84.94c2.21-3.96,5.29-7,9.25-9.11,3.96-2.11,8.48-3.17,13.55-3.17,6.65,0,12.25,1.87,16.82,5.62,4.56,3.75,7.45,8.95,8.66,15.59h-21.3c-.79-2.66-2.33-3.99-4.62-3.99-1.63,0-2.92.76-3.85,2.27-.94,1.51-1.41,3.75-1.41,6.71s.47,5.2,1.41,6.71c.94,1.51,2.22,2.27,3.85,2.27,2.3,0,3.84-1.33,4.62-3.99h21.3c-1.21,6.65-4.1,11.85-8.66,15.59-4.56,3.75-10.17,5.62-16.82,5.62-5.08,0-9.59-1.06-13.55-3.17-3.96-2.11-7.04-5.15-9.25-9.11-2.21-3.96-3.31-8.6-3.31-13.91s1.1-9.96,3.31-13.91Z"></path>
  <path class="cls-1" d="M284.26,121.88c-4.11-2.11-7.33-5.15-9.66-9.11-2.33-3.96-3.49-8.6-3.49-13.91s1.16-9.96,3.49-13.91c2.33-3.96,5.54-7,9.66-9.11,4.11-2.11,8.73-3.17,13.87-3.17s9.76,1.06,13.87,3.17c4.11,2.11,7.33,5.15,9.65,9.11,2.33,3.96,3.49,8.6,3.49,13.91s-1.16,9.96-3.49,13.91c-2.33,3.96-5.54,7-9.65,9.11-4.11,2.12-8.73,3.17-13.87,3.17s-9.76-1.06-13.87-3.17ZM302.85,105.42c1.27-1.48,1.9-3.67,1.9-6.57s-.63-5.09-1.9-6.57c-1.27-1.48-2.84-2.22-4.71-2.22s-3.44.74-4.71,2.22c-1.27,1.48-1.9,3.67-1.9,6.57s.62,5.09,1.86,6.57c1.24,1.48,2.82,2.22,4.76,2.22s3.44-.74,4.71-2.22Z"></path>
  <path class="cls-1" d="M375.59,78.82c3.29,3.93,4.94,9.25,4.94,15.95v29.64h-20.04v-27.1c0-2.42-.65-4.34-1.95-5.76-1.3-1.42-3.04-2.13-5.21-2.13s-3.99.71-5.26,2.13c-1.27,1.42-1.9,3.34-1.9,5.76v27.1h-20.13v-51.13h20.13v7.8c1.57-2.42,3.67-4.38,6.3-5.89,2.63-1.51,5.76-2.27,9.38-2.27,5.86,0,10.44,1.96,13.73,5.89Z"></path>
  <path class="cls-1" d="M383.84,84.84c1.84-3.96,4.37-6.98,7.57-9.06,3.2-2.09,6.8-3.13,10.79-3.13,3.32,0,6.19.68,8.61,2.04,2.42,1.36,4.26,3.22,5.53,5.57v-6.98h20.03v51.13h-20.03v-6.98c-1.27,2.36-3.11,4.22-5.53,5.57-2.42,1.36-5.29,2.04-8.61,2.04-3.99,0-7.58-1.04-10.79-3.13-3.2-2.09-5.73-5.11-7.57-9.06-1.85-3.96-2.77-8.63-2.77-14.01s.92-10.05,2.77-14.01ZM414.26,92.5c-1.39-1.51-3.17-2.27-5.35-2.27s-3.96.76-5.35,2.27c-1.39,1.51-2.09,3.63-2.09,6.35s.7,4.84,2.09,6.35c1.39,1.51,3.17,2.27,5.35,2.27s3.96-.76,5.35-2.27c1.39-1.51,2.09-3.63,2.09-6.35s-.7-4.84-2.09-6.35Z"></path>
  <path class="cls-1" d="M449.93,122.69c-3.72-1.57-6.66-3.75-8.84-6.53-2.18-2.78-3.42-5.92-3.72-9.43h19.31c.24,1.51.89,2.63,1.95,3.35,1.06.73,2.4,1.09,4.04,1.09,1.03,0,1.84-.23,2.45-.68.6-.45.91-1.01.91-1.68,0-1.15-.63-1.96-1.9-2.45-1.27-.48-3.41-1.03-6.44-1.63-3.69-.72-6.72-1.51-9.11-2.36-2.39-.85-4.47-2.29-6.25-4.35-1.78-2.05-2.67-4.9-2.67-8.52,0-3.14.83-6,2.49-8.57,1.66-2.57,4.12-4.59,7.39-6.07,3.26-1.48,7.22-2.22,11.88-2.22,6.89,0,12.28,1.69,16.18,5.08,3.9,3.38,6.24,7.8,7.03,13.23h-17.86c-.3-1.39-.94-2.46-1.9-3.22-.97-.76-2.27-1.13-3.9-1.13-1.03,0-1.81.2-2.36.59-.54.39-.82.98-.82,1.77,0,1.03.63,1.8,1.9,2.31,1.27.52,3.29,1.04,6.07,1.59,3.69.72,6.8,1.54,9.34,2.45,2.54.91,4.75,2.46,6.62,4.67,1.87,2.21,2.81,5.24,2.81,9.11,0,3.02-.88,5.74-2.63,8.16-1.75,2.42-4.28,4.32-7.57,5.71-3.29,1.39-7.15,2.09-11.56,2.09-4.84,0-9.11-.79-12.83-2.36Z"></path>
  <path class="cls-1" d="M541.17,73.29v51.13h-20.13v-7.8c-1.57,2.42-3.67,4.38-6.3,5.89-2.63,1.51-5.76,2.27-9.38,2.27-5.86,0-10.44-1.96-13.73-5.89-3.29-3.93-4.94-9.25-4.94-15.95v-29.64h20.04v27.1c0,2.42.65,4.34,1.95,5.76,1.3,1.42,3.04,2.13,5.21,2.13s3.99-.71,5.26-2.13c1.27-1.42,1.9-3.34,1.9-5.76v-27.1h20.13Z"></path>
  <path class="cls-1" d="M570.4,74.69c2.39-1.36,5.24-2.04,8.57-2.04,3.99,0,7.58,1.04,10.79,3.13,3.2,2.09,5.73,5.11,7.57,9.06,1.84,3.96,2.77,8.63,2.77,14.01s-.92,10.05-2.77,14.01c-1.84,3.96-4.37,6.98-7.57,9.06-3.2,2.09-6.8,3.13-10.79,3.13-3.32,0-6.18-.68-8.57-2.04-2.39-1.36-4.22-3.22-5.48-5.57v31.46h-20.13v-75.6h20.13v6.98c1.27-2.36,3.1-4.22,5.48-5.57ZM577.61,92.5c-1.39-1.51-3.17-2.27-5.35-2.27s-3.96.76-5.35,2.27c-1.39,1.51-2.09,3.63-2.09,6.35s.7,4.84,2.09,6.35c1.39,1.51,3.17,2.27,5.35,2.27s3.96-.76,5.35-2.27c1.39-1.51,2.09-3.63,2.09-6.35s-.7-4.84-2.09-6.35Z"></path>
  <path class="cls-1" d="M650.22,102.39h-32.36c.3,4.41,2.14,6.62,5.53,6.62,2.18,0,3.75-1,4.71-2.99h21.3c-.72,3.63-2.25,6.88-4.58,9.75-2.33,2.87-5.26,5.14-8.79,6.8-3.54,1.66-7.42,2.49-11.65,2.49-5.08,0-9.59-1.06-13.55-3.17-3.96-2.11-7.04-5.15-9.25-9.11-2.21-3.96-3.31-8.6-3.31-13.91s1.1-9.96,3.31-13.91c2.21-3.96,5.29-7,9.25-9.11,3.96-2.11,8.48-3.17,13.55-3.17s9.59,1.04,13.55,3.13c3.96,2.09,7.04,5.06,9.25,8.93,2.2,3.87,3.31,8.43,3.31,13.69,0,1.39-.09,2.72-.27,3.99ZM630.1,93.59c0-1.69-.54-2.98-1.63-3.85-1.09-.87-2.45-1.32-4.08-1.32-3.57,0-5.65,1.72-6.25,5.17h11.97Z"></path>
  <path class="cls-1" d="M679.05,75.6c2.96-1.78,6.04-2.67,9.25-2.67v21.48h-5.71c-3.81,0-6.6.67-8.38,2-1.78,1.33-2.67,3.69-2.67,7.07v20.94h-20.13v-51.13h20.13v9.43c2.05-2.96,4.56-5.33,7.52-7.12Z"></path>
  <path class="cls-3" d="M167.27,40.28c-11.19,0-20.26,9.07-20.26,20.26v55.77h0c0,11.19-9.07,20.26-20.26,20.26h20.6c22.19,0,40.18-17.99,40.18-40.18v-35.85c0-11.19-9.07-20.26-20.26-20.26h0Z"></path>
  <path class="cls-3" d="M49.75,44.51v52.22h40.52v-52.22h-40.52Z"></path>
  <path class="cls-2" d="M86.26,129.78h0c2.52-3.38,4.01-7.57,4.01-12.11v-28.42h-20.26c-11.19,0-20.26-9.07-20.26-20.26v24.28c0,20.16,16.35,36.51,36.51,36.51Z"></path>
  <path class="cls-2" d="M151.02,129.78h0c-2.52-3.38-4.01-7.57-4.01-12.11v-28.42h20.26c11.19,0,20.26-9.07,20.26-20.26v24.28c0,20.16-16.35,36.51-36.51,36.51Z"></path>
  <path class="cls-4" d="M167.27,96.05h-97.25c-11.19,0-20.26-9.07-20.26-20.26v20.6c0,22.19,17.99,40.18,40.18,40.18h57.41c22.19,0,40.18-17.99,40.18-40.18v-20.6c0,11.19-9.07,20.26-20.26,20.26Z"></path>
  <path class="cls-2" d="M70.01,52.39h0c11.19,0,20.26,9.07,20.26,20.26v-24.28c0-2.02-.17-4-.49-5.93h-40.04s0,3.73.01,9.94h20.25Z"></path>
  <path class="cls-3" d="M50.09,5.07h-18.21c-11.15,0-20.18,9.04-20.18,20.18v.16c0,11.15,9.04,20.18,20.18,20.18h38.13c11.19,0,20.26,9.07,20.26,20.26v-20.6c0-22.19-17.99-40.18-40.18-40.18Z"></path>
  <path class="cls-3" d="M114.28,168.88v.04c0-11.25-9.11-20.37-20.34-20.37h-.04c-11.24,0-20.34,9.12-20.34,20.37v-.04c0,11.26,9.12,20.39,20.37,20.39h0c11.25,0,20.37-9.13,20.37-20.39Z"></path>
  <path class="cls-3" d="M169.28,168.88v.04c0-11.25-9.11-20.37-20.34-20.37h-.04c-11.24,0-20.34,9.12-20.34,20.37v-.04c0,11.26,9.12,20.39,20.37,20.39h0c11.25,0,20.37-9.13,20.37-20.39Z"></path>
</svg>
